<svg xmlns="http://www.w3.org/2000/svg" width="828" height="833" viewBox="0 0 828 833">
  <style>
    text {
      font-family: "Cascadia Code", "Cascadia Mono", Consolas, "Courier New", monospace;
      dominant-baseline: alphabetic;
    }

    .bg { fill: #111111; }
    .activity { fill: #181818; }
    .explorer { fill: #181818; }
    .editor { fill: #111111; }
    .tabbar { fill: #111111; }
    .tab { fill: #181818; }
    .selected-activity { fill: #2a2d2e; }
    .border { stroke: #2b2b2b; stroke-width: 1; }
    .divider { stroke: #303030; stroke-width: 1; }

    .activity-icon {
      fill: none;
      stroke: #9a9a9a;
      stroke-width: 2;
      stroke-linecap: round;
      stroke-linejoin: round;
    }

    .explorer-title {
      fill: #d4d4d4;
      font-size: 14px;
      font-weight: 700;
    }

    .tree {
      fill: #d4d4d4;
      font-size: 14px;
      font-weight: 600;
    }

    .tree-dim {
      fill: #b7b7b7;
      font-size: 14px;
      font-weight: 600;
    }

    .tree-blue {
      fill: #4fc1ff;
      font-size: 14px;
      font-weight: 600;
    }

    .tab-text {
      fill: #f0f0f0;
      font-size: 14px;
      font-weight: 700;
      font-style: italic;
    }

    .breadcrumb {
      fill: #b8b8b8;
      font-size: 13px;
      font-weight: 600;
    }

    .breadcrumb-dim {
      fill: #7c7c7c;
    }

    .line-no {
      fill: #858585;
      font-size: 14px;
      text-anchor: end;
      font-weight: 500;
    }

    .plain {
      fill: #d4d4d4;
      font-size: 14px;
      font-weight: 600;
    }

    .label {
      fill: #dcdcaa;
      font-size: 14px;
      font-weight: 700;
    }

    .section {
      fill: #ce9178;
      font-size: 14px;
      font-weight: 700;
    }

    .value {
      fill: #4fc1ff;
      font-size: 14px;
      font-weight: 700;
    }

    .ref {
      fill: #569cd6;
      font-size: 14px;
      font-weight: 700;
    }

    .rule {
      stroke: #888888;
      stroke-width: 1;
    }
  </style>

  <rect class="bg" x="0" y="0" width="828" height="833"/>

  <rect class="activity" x="0" y="0" width="52" height="833"/>
  <rect class="selected-activity" x="6" y="5" width="36" height="41" rx="4"/>

  <rect class="activity-icon" x="11" y="12" width="18" height="23" rx="2"/>
  <path class="activity-icon" d="M15 9h15l5 5v19"/>

  <circle class="activity-icon" cx="22" cy="77" r="9"/>
  <line class="activity-icon" x1="29" y1="84" x2="37" y2="92"/>

  <circle class="activity-icon" cx="18" cy="119" r="3"/>
  <circle class="activity-icon" cx="31" cy="132" r="3"/>
  <circle class="activity-icon" cx="18" cy="145" r="3"/>
  <line class="activity-icon" x1="18" y1="122" x2="18" y2="142"/>
  <path class="activity-icon" d="M18 119 V142 C18 149 31 149 31 142 V132"/>

  <path class="activity-icon" d="M14 169l20 12-20 12z"/>

  <rect class="activity-icon" x="10" y="211" width="10" height="10"/>
  <rect class="activity-icon" x="24" y="211" width="10" height="10"/>
  <rect class="activity-icon" x="10" y="225" width="10" height="10"/>
  <rect class="activity-icon" x="24" y="225" width="10" height="10"/>

  <rect class="explorer" x="52" y="0" width="193" height="833"/>
  <line class="divider" x1="245" y1="0" x2="245" y2="833"/>

  <text class="explorer-title" x="68" y="28">Explorer</text>
  <text class="explorer-title" x="214" y="28">...</text>

  <text class="tree-dim" x="67" y="62">⌄</text>
  <text class="tree" x="88" y="62">Profile</text>

  <text class="tree-dim" x="80" y="94">›</text>
  <text class="tree" x="96" y="94">Folder1</text>

  <text class="tree-dim" x="80" y="125">›</text>
  <text class="tree" x="96" y="125">Folder2</text>

  <text class="tree-dim" x="80" y="156">›</text>
  <text class="tree" x="96" y="156">Folder3</text>

  <text class="tree-dim" x="80" y="187">›</text>
  <text class="tree" x="96" y="187">Folder4</text>

  <circle cx="82" cy="217" r="7" fill="none" stroke="#4fc1ff" stroke-width="1.4"/>
  <text class="tree-blue" x="78.2" y="221" font-size="10">i</text>
  <text class="tree" x="95" y="222">README.md</text>

  <rect class="editor" x="245" y="0" width="583" height="833"/>

  <rect class="tab" x="245" y="0" width="159" height="36"/>
  <line x1="245" y1="0" x2="404" y2="0" stroke="#007acc" stroke-width="2"/>
  <circle cx="263" cy="18" r="6" fill="none" stroke="#4fc1ff" stroke-width="1.3"/>
  <text x="260.5" y="21.3" fill="#4fc1ff" font-size="9">i</text>
  <text class="tab-text" x="279" y="24">README.md</text>
  <text x="379" y="24" fill="#d4d4d4" font-size="20">×</text>
  <line class="border" x1="245" y1="36" x2="828" y2="36"/>

  <text class="breadcrumb" x="266" y="60">
    C:
    <tspan class="breadcrumb-dim"> › </tspan>
    Users
    <tspan class="breadcrumb-dim"> › </tspan>
    huaux
    <tspan class="breadcrumb-dim"> › </tspan>
    Profile
    <tspan class="breadcrumb-dim"> › </tspan>
    README.md
    <tspan class="breadcrumb-dim"> › ...</tspan>
  </text>
  <line class="border" x1="245" y1="72" x2="828" y2="72"/>

  <line class="border" x1="304" y1="72" x2="304" y2="833"/>

  <text class="line-no" x="293" y="99">1</text>
  <text class="plain" x="320" y="99">huaux-raphael</text>
  <line class="rule" x1="445" y1="93" x2="814" y2="93"/>

  <text class="line-no" x="293" y="122">2</text>
  <text class="plain" x="320" y="122">· </text>
  <text class="label" x="337" y="122">Role:</text>
  <text class="plain" x="382" y="122">..................................</text>
  <text class="value" x="664" y="122">Student Developer</text>

  <text class="line-no" x="293" y="145">3</text>
  <text class="plain" x="320" y="145">· </text>
  <text class="label" x="337" y="145">Location:</text>
  <text class="plain" x="414" y="145">........................................</text>
  <text class="value" x="745" y="145">Belgium</text>

  <text class="line-no" x="293" y="168">4</text>
  <text class="plain" x="320" y="168">· </text>
  <text class="label" x="337" y="168">Hobbies:</text>
  <text class="plain" x="405" y="168">...............</text>
  <text class="value" x="531" y="168">Gaming, Anime, Learning, Building</text>

  <text class="line-no" x="293" y="191">5</text>
  <text class="plain" x="320" y="191">· </text>
  <text class="label" x="337" y="191">Interests:</text>
  <text class="plain" x="424" y="191">............</text>
  <text class="value" x="525" y="191">Software, Hardware, Cybersecurity,</text>

  <text class="line-no" x="293" y="214">6</text>
  <text class="plain" x="320" y="214">..............................</text>
  <text class="value" x="571" y="214">Networking, Machine Learning</text>

  <text class="line-no" x="293" y="237">7</text>

  <text class="line-no" x="293" y="260">8</text>
  <text class="section" x="320" y="260">- Tools</text>
  <line class="rule" x1="390" y1="254" x2="814" y2="254"/>

  <text class="line-no" x="293" y="283">9</text>
  <text class="plain" x="320" y="283">· </text>
  <text class="label" x="337" y="283">OS:</text>
  <text class="plain" x="365" y="283">....................................</text>
  <text class="value" x="662" y="283">Linux, Windows 11</text>

  <text class="line-no" x="293" y="306">10</text>
  <text class="plain" x="320" y="306">· </text>
  <text class="label" x="337" y="306">IDE:</text>
  <text class="plain" x="373" y="306">..............</text>
  <text class="value" x="490" y="306">VS Code, IntelliJ IDEA, Android Studio</text>

  <text class="line-no" x="293" y="329">11</text>
  <text class="plain" x="320" y="329">· </text>
  <text class="label" x="337" y="329">Tools:</text>
  <text class="plain" x="389" y="329">...............</text>
  <text class="value" x="515" y="329">Git, GitHub, Gradle, Figma, Blender</text>

  <text class="line-no" x="293" y="352">12</text>
  <text class="plain" x="320" y="352">· </text>
  <text class="label" x="337" y="352">Systems:</text>
  <text class="plain" x="405" y="352">.....................</text>
  <text class="value" x="581" y="352">Arduino, Raspberry Pi, </text>
  <text class="ref" x="770" y="352">[OS]</text>

  <text class="line-no" x="293" y="375">13</text>

  <text class="line-no" x="293" y="398">14</text>
  <text class="section" x="320" y="398">- Languages</text>
  <line class="rule" x1="428" y1="392" x2="814" y2="392"/>

  <text class="line-no" x="293" y="421">15</text>
  <text class="plain" x="320" y="421">· </text>
  <text class="label" x="337" y="421">Languages.Real:</text>
  <text class="plain" x="473" y="421">..................</text>
  <text class="value" x="622" y="421">English, French, Dutch</text>

  <text class="line-no" x="293" y="444">16</text>
  <text class="plain" x="320" y="444">· </text>
  <text class="label" x="337" y="444">Languages.Programming:</text>
  <text class="plain" x="525" y="444">...........</text>
  <text class="value" x="617" y="444">JavaScript, TypeScript,</text>

  <text class="line-no" x="293" y="467">17</text>
  <text class="plain" x="320" y="467">......................</text>
  <text class="value" x="507" y="467">Java, Kotlin, Python, C++, Dart, Lua</text>

  <text class="line-no" x="293" y="490">18</text>
  <text class="plain" x="320" y="490">· </text>
  <text class="label" x="337" y="490">Languages.Web:</text>
  <text class="plain" x="470" y="490">.........................</text>
  <text class="value" x="680" y="490">HTML, CSS, JSON</text>

  <text class="line-no" x="293" y="513">19</text>
  <text class="plain" x="320" y="513">· </text>
  <text class="label" x="337" y="513">Frameworks:</text>
  <text class="plain" x="438" y="513">.....................</text>
  <text class="value" x="614" y="513">React, Node.js, Flutter</text>

  <text class="line-no" x="293" y="536">20</text>
  <text class="plain" x="320" y="536">· </text>
  <text class="label" x="337" y="536">Machine Learning:</text>
  <text class="plain" x="487" y="536">...............................</text>
  <text class="value" x="745" y="536">PyTorch</text>

  <text class="line-no" x="293" y="559">21</text>

  <text class="line-no" x="293" y="582">22</text>
  <text class="section" x="320" y="582">- Contact</text>
  <line class="rule" x1="397" y1="576" x2="814" y2="576"/>

  <text class="line-no" x="293" y="605">23</text>
  <text class="plain" x="320" y="605">· </text>
  <text class="label" x="337" y="605">GitHub:</text>
  <text class="plain" x="398" y="605">.........................</text>
  <text class="value" x="605" y="605">github.com/huaux-raphael</text>

  <text class="line-no" x="293" y="628">24</text>
  <text class="plain" x="320" y="628">· </text>
  <text class="label" x="337" y="628">Website:</text>
  <text class="plain" x="406" y="628">...................................</text>
  <text class="value" x="695" y="628">[In Progress]</text>

  <text class="line-no" x="293" y="651">25</text>
  <text class="plain" x="320" y="651">· </text>
  <text class="label" x="337" y="651">Email:</text>
  <text class="plain" x="389" y="651">............................</text>
  <text class="value" x="620" y="651">huauxraphael@gmail.com</text>

  <text class="line-no" x="293" y="674">26</text>
  <text class="plain" x="320" y="674">· </text>
  <text class="label" x="337" y="674">Discord:</text>
  <text class="plain" x="406" y="674">...................................</text>
  <text class="value" x="695" y="674">[In Progress]</text>

  <text class="line-no" x="293" y="697">27</text>
  <text class="plain" x="320" y="697">· </text>
  <text class="label" x="337" y="697">Dev.to:</text>
  <text class="plain" x="398" y="697">.............................</text>
  <text class="value" x="637" y="697">dev.to/raphael_huaux</text>

  <text class="line-no" x="293" y="720">28</text>
  <text class="plain" x="320" y="720">· </text>
  <text class="label" x="337" y="720">Ko-Fi:</text>
  <text class="plain" x="389" y="720">............................</text>
  <text class="value" x="621" y="720">ko-fi.com/raphaelhuaux</text>

  <text class="line-no" x="293" y="743">29</text>

  <text class="line-no" x="293" y="766">30</text>
  <text class="section" x="320" y="766">- GitHub Stats</text>
  <line class="rule" x1="440" y1="760" x2="814" y2="760"/>

  <text class="line-no" x="293" y="789">31</text>
  <text class="plain" x="320" y="789">· Repositories: .........</text>
  <text id="repositories" class="ref" x="525" y="789">[AUTO]</text>
  <text class="plain" x="585" y="789">| Stars: ............</text>
  <text id="stars" class="ref" x="762" y="789">[AUTO]</text>

  <text class="line-no" x="293" y="812">32</text>
  <text class="plain" x="320" y="812">· Commits: ..............</text>
  <text id="commits" class="ref" x="525" y="812">[AUTO]</text>
  <text class="plain" x="585" y="812">| Followers: ........</text>
  <text id="followers" class="ref" x="762" y="812">[AUTO]</text>
</svg>
